<svg width="19" height="19" viewBox="0 0 19 19" fill="none" xmlns="http://www.w3.org/2000/svg">
<path fill-rule="evenodd" clip-rule="evenodd" d="M13.2 0.242676H5.19995C2.43853 0.242676 0.199951 2.48126 0.199951 5.24268V13.2427C0.199951 16.0041 2.43853 18.2427 5.19995 18.2427H13.2C15.9614 18.2427 18.2 16.0041 18.2 13.2427V5.24268C18.2 2.48126 15.9614 0.242676 13.2 0.242676ZM16.45 13.2427C16.4445 15.0353 14.9926 16.4872 13.2 16.4927H5.19995C3.4073 16.4872 1.95544 15.0353 1.94995 13.2427V5.24268C1.95544 3.45003 3.4073 1.99817 5.19995 1.99268H13.2C14.9926 1.99817 16.4445 3.45003 16.45 5.24268V13.2427ZM13.95 5.49268C14.5023 5.49268 14.95 5.04496 14.95 4.49268C14.95 3.9404 14.5023 3.49268 13.95 3.49268C13.3977 3.49268 12.95 3.9404 12.95 4.49268C12.95 5.04496 13.3977 5.49268 13.95 5.49268ZM9.19995 4.74268C6.71467 4.74268 4.69995 6.7574 4.69995 9.24268C4.69995 11.728 6.71467 13.7427 9.19995 13.7427C11.6853 13.7427 13.7 11.728 13.7 9.24268C13.7027 8.04838 13.2294 6.90225 12.3849 6.05776C11.5404 5.21327 10.3943 4.74002 9.19995 4.74268ZM6.44995 9.24268C6.44995 10.7615 7.68115 11.9927 9.19995 11.9927C10.7188 11.9927 11.95 10.7615 11.95 9.24268C11.95 7.72388 10.7188 6.49268 9.19995 6.49268C7.68115 6.49268 6.44995 7.72388 6.44995 9.24268Z" fill="white" style="fill:white;fill-opacity:1;"/>
</svg>
