<svg width="60" height="62" viewBox="0 0 60 62" fill="none" xmlns="http://www.w3.org/2000/svg">
<mask id="path-1-outside-1_272_896" maskUnits="userSpaceOnUse" x="0" y="0" width="60" height="62" fill="black">
<rect fill="white" width="60" height="62"/>
<path d="M2 14C2 7.37258 7.37258 2 14 2H46C52.6274 2 58 7.37258 58 14V46C58 52.6274 52.6274 58 46 58H14C7.37258 58 2 52.6274 2 46V14Z"/>
</mask>
<path d="M2 14C2 7.37258 7.37258 2 14 2H46C52.6274 2 58 7.37258 58 14V46C58 52.6274 52.6274 58 46 58H14C7.37258 58 2 52.6274 2 46V14Z" fill="#7E7360" style="fill:#7E7360;fill:color(display-p3 0.4941 0.4510 0.3765);fill-opacity:1;"/>
<path d="M0.5 14C0.5 6.54416 6.54416 0.5 14 0.5H46C53.4558 0.5 59.5 6.54416 59.5 14H56.5C56.5 8.20101 51.799 3.5 46 3.5H14C8.20101 3.5 3.5 8.20101 3.5 14H0.5ZM59.5 48.5C59.5 55.9558 53.4558 62 46 62H14C6.54416 62 0.5 55.9558 0.5 48.5L3.5 46C3.5 50.4183 8.20101 54 14 54H46C51.799 54 56.5 50.4183 56.5 46L59.5 48.5ZM14 62C6.54416 62 0.5 55.9558 0.5 48.5V14C0.5 6.54416 6.54416 0.5 14 0.5V3.5C8.20101 3.5 3.5 8.20101 3.5 14V46C3.5 50.4183 8.20101 54 14 54V62ZM46 0.5C53.4558 0.5 59.5 6.54416 59.5 14V48.5C59.5 55.9558 53.4558 62 46 62V54C51.799 54 56.5 50.4183 56.5 46V14C56.5 8.20101 51.799 3.5 46 3.5V0.5Z" fill="#645C4C" style="fill:#645C4C;fill:color(display-p3 0.3922 0.3608 0.2980);fill-opacity:1;" mask="url(#path-1-outside-1_272_896)"/>
<path d="M30.7069 35.293L26.4139 31H35.9999V29H26.4139L30.7069 24.707L29.2929 23.293L22.5859 30L29.2929 36.707L30.7069 35.293Z" fill="#010101" style="fill:#010101;fill:color(display-p3 0.0039 0.0039 0.0039);fill-opacity:1;"/>
</svg>
