<svg width="49" height="48" viewBox="0 0 49 48" fill="none" xmlns="http://www.w3.org/2000/svg">
<rect x="0.666504" width="48" height="48" rx="16" fill="white" style="fill:white;fill-opacity:1;"/>
<path d="M25.2126 15.015C26.1951 15 27.1701 15.0075 28.145 15C28.205 16.1475 28.6175 17.3175 29.4575 18.1275C30.2975 18.96 31.4825 19.3424 32.6375 19.4699V22.4924C31.5575 22.4549 30.47 22.2299 29.4875 21.7649C29.06 21.5699 28.6625 21.3224 28.2725 21.0674C28.265 23.2574 28.28 25.4474 28.2575 27.6298C28.1975 28.6798 27.8526 29.7223 27.2451 30.5848C26.2626 32.0248 24.5601 32.9623 22.8126 32.9923C21.7401 33.0523 20.6676 32.7598 19.7527 32.2198C18.2377 31.3273 17.1727 29.6923 17.0152 27.9373C17.0002 27.5623 16.9927 27.1873 17.0077 26.8199C17.1427 25.3949 17.8477 24.0299 18.9427 23.0999C20.1876 22.0199 21.9276 21.5024 23.5551 21.8099C23.5701 22.9199 23.5251 24.0299 23.5251 25.1399C22.7826 24.8999 21.9126 24.9674 21.2601 25.4174C20.7876 25.7249 20.4276 26.1974 20.2401 26.7299C20.0826 27.1123 20.1276 27.5323 20.1351 27.9373C20.3151 29.1673 21.5001 30.2023 22.7601 30.0898C23.6001 30.0823 24.4026 29.5948 24.8376 28.8823C24.9801 28.6348 25.1376 28.3798 25.1451 28.0873C25.2201 26.7449 25.1901 25.4099 25.1976 24.0674C25.2051 21.0449 25.1901 18.03 25.2126 15.015Z" fill="black" style="fill:black;fill-opacity:1;"/>
</svg>
