<svg width="17" height="18" viewBox="0 0 17 18" fill="none" xmlns="http://www.w3.org/2000/svg">
<path d="M8.61249 0.0149998C9.59497 0 10.57 0.00749991 11.5449 0C11.6049 1.14749 12.0174 2.31747 12.8574 3.12746C13.6974 3.95995 14.8824 4.34245 16.0374 4.46994V7.49241C14.9574 7.45491 13.8699 7.22991 12.8874 6.76492C12.4599 6.56992 12.0624 6.32242 11.6724 6.06742C11.6649 8.2574 11.6799 10.4474 11.6574 12.6298C11.5974 13.6798 11.2525 14.7223 10.645 15.5848C9.66247 17.0248 7.96 17.9623 6.21252 17.9923C5.14003 18.0523 4.06754 17.7598 3.15256 17.2198C1.63757 16.3273 0.572588 14.6923 0.41509 12.9373C0.40009 12.5623 0.39259 12.1873 0.40759 11.8199C0.542589 10.3949 1.24758 9.02989 2.34257 8.0999C3.58755 7.01991 5.32753 6.50242 6.95501 6.80991C6.97001 7.9199 6.92501 9.02989 6.92501 10.1399C6.18252 9.89988 5.31253 9.96737 4.66004 10.4174C4.18754 10.7249 3.82755 11.1974 3.64005 11.7299C3.48255 12.1123 3.52755 12.5323 3.53505 12.9373C3.71505 14.1673 4.90003 15.2023 6.16002 15.0898C7.00001 15.0823 7.8025 14.5948 8.23749 13.8823C8.37999 13.6348 8.53749 13.3798 8.54499 13.0873C8.61999 11.7449 8.58999 10.4099 8.59749 9.06739C8.60499 6.04492 8.58999 3.02996 8.61249 0.0149998Z" fill="white" style="fill:white;fill-opacity:1;"/>
</svg>
