<svg width="49" height="48" viewBox="0 0 49 48" fill="none" xmlns="http://www.w3.org/2000/svg">
<rect x="0.333496" width="48" height="48" rx="16" fill="white" style="fill:white;fill-opacity:1;"/>
<path d="M33.5928 19.203C33.4789 18.7804 33.2563 18.395 32.9472 18.0852C32.6381 17.7753 32.2532 17.5519 31.8308 17.437C30.2648 17.007 23.9998 17 23.9998 17C23.9998 17 17.7358 16.993 16.1688 17.404C15.7468 17.5242 15.3627 17.7508 15.0534 18.0621C14.7442 18.3735 14.5201 18.7591 14.4028 19.182C13.9898 20.748 13.9858 23.996 13.9858 23.996C13.9858 23.996 13.9818 27.26 14.3918 28.81C14.6218 29.667 15.2968 30.344 16.1548 30.575C17.7368 31.005 23.9848 31.012 23.9848 31.012C23.9848 31.012 30.2498 31.019 31.8158 30.609C32.2383 30.4943 32.6236 30.2714 32.9335 29.9622C33.2434 29.653 33.4672 29.2682 33.5828 28.846C33.9968 27.281 33.9998 24.034 33.9998 24.034C33.9998 24.034 34.0198 20.769 33.5928 19.203ZM21.9958 27.005L22.0008 21.005L27.2078 24.01L21.9958 27.005Z" fill="#010101" style="fill:#010101;fill:color(display-p3 0.0039 0.0039 0.0039);fill-opacity:1;"/>
</svg>
